#!OML:ASF H:\Terrain\Patient Classification 1\Animal1\Tuesday\Animal1.ASF
:FULLY-SPECIFIED
:DEGREES
1104
root 15.3981 15.336 -12.7474 13.5011 17.9028 -1.18724
lowerback 2.08956 -1.08057 -1.98957
upperback -7.37513 -1.41529 1.95345
thorax -8.83865 -0.460701 3.31733
lowerneck 3.00991 1.20443 -4.97566
upperneck 6.80208 1.27205 5.81388
head 1.56345 0.613398 2.73738
rclavicle 5.14045e-015 -9.93923e-016
rhumerus -38.8515 41.9132 -43.7634
rradius 139.392
rwrist -36.8165
rhand -22.4332 44.314
rfingers 7.12502
rthumb 3.99048 14.3717
lclavicle 5.14045e-015 -9.93923e-016
lhumerus -48.8552 -24.4299 42.3886
lradius 142.85
lwrist 13.2418
lhand 8.13435 24.0681
lfingers 7.12502
lthumb 33.3548 50.9928
rfemur -41.9127 11.2277 8.10365
rtibia 50.4577
rfoot -24.0987 -18.1531
rtoes 25.2686
lfemur -38.1923 -13.7586 -10.9865
ltibia 52.5426
lfoot -24.339 20.0465
ltoes -7.37377
1105
root 15.389 15.3295 -12.7605 13.51 17.8481 -1.14104
lowerback 1.96811 -1.12661 -2.11936
upperback -7.13335 -1.48094 2.03022
thorax -8.49263 -0.491726 3.46752
lowerneck 3.01556 1.23097 -5.3594
upperneck 8.45994 1.24175 6.02756
head 2.10669 0.595194 2.90864
rclavicle -5.42108e-014 -6.95746e-015
rhumerus -37.9252 42.003 -43.3046
rradius 139.247
rwrist -37.0134
rhand -21.8495 45.3662
rfingers 7.12502
rthumb 4.55407 15.4352
lclavicle -5.42108e-014 -6.95746e-015
lhumerus -48.8262 -24.3763 42.3249
lradius 142.874
lwrist 13.316
lhand 7.83373 24.001
lfingers 7.12502
lthumb 33.0689 50.9866
rfemur -42.0456 11.2139 8.06174
rtibia 50.504
rfoot -21.6059 -19.1401
rtoes 19.4714
lfemur -38.3193 -13.6777 -11.0058
ltibia 52.6606
lfoot -24.4778 20.002
ltoes -7.17702
1106
root 15.3792 15.3188 -12.7755 13.3986 17.8061 -1.17844
lowerback 1.96503 -1.1566 -2.17656
upperback -6.85894 -1.5212 2.12077
thorax -8.18481 -0.514998 3.59154
lowerneck 3.30015 1.24528 -5.37121
upperneck 9.67092 1.22449 5.87065
head 2.46048 0.580786 2.87563
rclavicle 6.21513e-014 2.32578e-014
rhumerus -37.0371 42.055 -42.8249
rradius 139.261
rwrist -37.0799
rhand -22.587 44.9212
rfingers 7.12502
rthumb 3.84194 14.9761
lclavicle 6.21513e-014 2.32578e-014
lhumerus -48.8423 -24.3611 42.3603
lradius 142.931
lwrist 13.2061
lhand 7.19532 24.3345
lfingers 7.12502
lthumb 32.4616 51.4468
rfemur -42.0961 11.1985 8.13127
rtibia 50.5725
rfoot -20.5002 -18.977
rtoes 18.974
lfemur -38.3455 -13.5435 -10.9728
ltibia 52.7925
lfoot -24.5458 19.9941
ltoes -7.14716
1107
root 15.371 15.3112 -12.7894 13.0926 17.7825 -1.38415
lowerback 2.04649 -1.1497 -2.0084
upperback -6.46844 -1.5017 2.18932
thorax -7.81112 -0.527343 3.55939
lowerneck 3.96599 1.33372 -5.4949
upperneck 10.085 1.29191 6.00176
head 2.47563 0.605189 2.9425
rclavicle 2.90226e-014 -2.52457e-014
rhumerus -36.2869 41.8863 -42.3167
rradius 139.381
rwrist -36.9369
rhand -23 44.3624
rfingers 7.12502
rthumb 3.4431 14.4104
lclavicle 2.90226e-014 -2.52457e-014
lhumerus -48.7266 -24.352 42.2954
lradius 143.021
lwrist 13.1042
lhand 6.15546 24.9859
lfingers 7.12502
lthumb 31.4714 52.2964
rfemur -41.9115 11.238 8.42215
rtibia 50.672
rfoot -20.4138 -19.3662
rtoes 16.6405
lfemur -38.1917 -13.3912 -10.8293
ltibia 52.8902
lfoot -24.0528 20.6028
ltoes -9.80046
1108
root 15.3655 15.3105 -12.798 12.8043 17.7578 -1.42054
lowerback 2.15428 -1.13778 -1.97236
upperback -6.06608 -1.48849 2.19885
thorax -7.44042 -0.536095 3.54033
lowerneck 4.72839 1.46083 -5.85763
upperneck 9.96136 1.39836 6.36541
head 2.29028 0.643075 3.12285
rclavicle 4.01918e-015 1.78906e-014
rhumerus -35.9552 41.7274 -41.9383
rradius 139.59
rwrist -36.4907
rhand -22.9452 44.202
rfingers 7.12502
rthumb 3.49598 14.2509
lclavicle 4.01918e-015 1.78906e-014
lhumerus -48.598 -24.3104 42.0719
lradius 143.195
lwrist 13.1162
lhand 5.97239 24.9951
lfingers 7.12502
lthumb 31.297 52.3395
rfemur -41.6333 11.2198 8.55637
rtibia 50.7642
rfoot -20.6538 -19.2328
rtoes 16.3786
lfemur -37.9181 -13.3418 -10.8754
ltibia 52.9482
lfoot -23.8699 20.8063
ltoes -10.9878
1109
root 15.3606 15.3063 -12.8068 12.6932 17.6721 -1.31568
lowerback 2.14495 -0.987598 -1.98661
upperback -5.74545 -1.29805 2.07411
thorax -7.10627 -0.456222 3.39304
lowerneck 5.58891 1.41843 -6.14764
upperneck 9.50215 1.27905 6.78827
head 1.99199 0.569173 3.30542
rclavicle -6.23314e-014 1.47101e-014
rhumerus -36.3747 41.4919 -41.9035
rradius 139.901
rwrist -36.069
rhand -22.9067 44.1772
rfingers 7.12502
rthumb 3.53324 14.2267
lclavicle -6.23314e-014 1.47101e-014
lhumerus -48.2156 -24.5599 41.8648
lradius 143.281
lwrist 12.955
lhand 6.81094 24.4303
lfingers 7.12502
lthumb 32.0957 51.617
rfemur -41.5925 11.1455 8.4964
rtibia 50.8659
rfoot -20.6173 -19.1344
rtoes 16.5288
lfemur -37.7484 -13.3238 -11.0149
ltibia 52.9845
lfoot -24.3951 20.1578
ltoes -8.33808
1110
root 15.3541 15.2981 -12.8184 12.6926 17.5185 -1.25842
lowerback 2.06335 -0.702674 -1.85699
upperback -5.47317 -0.924411 1.8132
thorax -6.79875 -0.295605 3.00881
lowerneck 6.53267 1.1631 -6.08656
upperneck 8.74574 0.902181 7.14499
head 1.60302 0.372753 3.40018
rclavicle -3.0178e-014 2.98177e-015
rhumerus -37.5313 41.042 -42.3945
rradius 140.275
rwrist -35.7421
rhand -22.9479 44.2632
rfingers 7.12502
rthumb 3.49339 14.312
lclavicle -3.0178e-014 2.98177e-015
lhumerus -47.5335 -25.0649 41.4501
lradius 143.364
lwrist 12.8172
lhand 7.3239 23.993
lfingers 7.12502
lthumb 32.584 51.0801
rfemur -41.7857 11.1439 8.41417
rtibia 50.9654
rfoot -20.5544 -18.7445
rtoes 17.9382
lfemur -37.7518 -13.2188 -11.0724
ltibia 52.9924
lfoot -24.8073 19.6136
ltoes -5.96222
